<svg width="32" height="32" viewBox="0 0 32 32" fill="none" xmlns="http://www.w3.org/2000/svg">
<path d="M9.33333 12.2133C9.33333 10.9733 10.3467 9.95988 11.5867 9.95988C12.8267 9.95988 13.84 10.9733 13.84 12.2133C13.84 14.72 10.28 14.9866 9.49333 17.3733C9.33333 17.8666 9.74666 18.3599 10.2667 18.3599H13.84M21.3867 18.3466V10.7333C21.3867 10.3866 21.16 10.0799 20.8267 9.98655C20.4933 9.89321 20.1333 10.0265 19.9467 10.3199C18.9867 11.8665 17.9467 13.6266 17.04 15.1732C16.8933 15.4266 16.8933 15.7599 17.04 16.0132C17.1867 16.2666 17.4667 16.4265 17.7733 16.4265H22.6667M24 25.1466H22.9867C21.92 25.1466 20.9067 25.5599 20.16 26.3066L17.88 28.56C16.84 29.5866 15.1467 29.5866 14.1067 28.56L11.8267 26.3066C11.08 25.5599 10.0533 25.1466 9 25.1466H8C5.78667 25.1466 4 23.3733 4 21.1866V6.63989C4 4.45323 5.78667 2.67993 8 2.67993H24C26.2133 2.67993 28 4.45323 28 6.63989V21.1866C28 23.3599 26.2133 25.1466 24 25.1466Z" stroke="#292D32" stroke-width="1.5" stroke-linecap="round" stroke-linejoin="round"/>
</svg>
