<svg width="80" height="80" viewBox="0 0 80 80" fill="none" xmlns="http://www.w3.org/2000/svg">
<path fill-rule="evenodd" clip-rule="evenodd" d="M45.2108 4.66706C43.8448 5.90886 42.0753 14.8497 42.8203 16.7744C43.5965 18.7615 45.5524 17.6749 46.5457 14.7566C49.3396 6.65388 48.6568 1.5627 45.2108 4.66706ZM20.2515 5.87794C19.258 6.8715 22.7039 17.8298 24.4425 19.1028C27.5468 21.4 28.7883 18.7303 26.8327 13.8873C23.7593 6.18802 22.0519 4.07724 20.2515 5.87794ZM66.6002 15.5632C64.7686 16.3706 58.0631 24.2245 58.0631 25.5594C58.0631 27.2358 60.0809 26.6151 62.4093 24.2245C69.1147 17.3327 70.8842 13.7006 66.6002 15.5632ZM13.2975 30.0304C13.7631 30.0304 17.2399 29.4718 15.5016 28.23C12.8629 26.3672 2.99061 20.9035 1.87309 21.8658C0.352134 23.1698 11.4037 30.0304 13.2975 30.0304ZM55.5486 33.3833C54.2135 27.4538 44.9314 21.6797 38.5054 22.7972C22.0519 25.6534 15.4395 43.4416 26.9879 53.7482C27.8572 54.5245 27.826 55.5177 26.8636 56.3561C25.3118 57.7219 25.7461 60.7022 27.8572 62.9685C28.0433 63.1858 28.1363 63.465 28.1363 63.7444C28.1363 64.0239 27.9815 64.2721 27.7329 64.4585C24.6286 66.7869 27.1431 70.1395 27.919 70.8224C28.6334 71.4744 31.334 71.5056 34.5005 71.7229L34.9352 72.7162C36.177 75.6653 41.2993 77.373 43.0376 75.4171C44.2485 74.051 45.3351 72.4058 45.3351 71.9402C45.3351 71.5056 45.7076 71.4435 47.6632 71.4435C52.1027 71.4435 53.9343 68.0597 51.2022 64.9553C50.302 63.9308 50.6748 62.689 51.2955 62.689C53.9965 62.689 54.1204 59.9572 51.7302 57.1632C50.5505 55.7663 50.6748 55.3625 53.0341 52.8789C58.0322 47.6014 58.9946 37.4191 54.4311 38.2571C50.0537 39.0643 55.7659 40.6786 47.9117 52.9411L46.856 54.5863C46.6078 54.9591 46.2041 55.1764 45.7694 55.1452L44.9004 55.0831C42.9136 54.9591 42.6963 54.245 44.0933 52.227C44.621 51.482 45.0556 50.7681 45.0556 50.6439C45.0556 50.5508 45.4591 49.9298 45.9871 49.309C46.9494 48.0982 47.9739 45.6458 47.6944 45.1802C47.0424 44.1245 44.7762 45.149 44.7762 46.5151C44.7762 47.0115 44.4037 47.7878 43.876 48.3776C42.1374 50.3953 42.0756 51.2337 41.5476 54.3381C41.5223 54.5496 41.3557 54.7164 41.1441 54.7418C39.0952 55.0522 38.7848 55.1143 38.4432 55.1452C37.6052 55.2073 37.6052 54.8658 37.4809 53.5309C37.3566 52.1339 35.6183 49.0605 34.3765 48.036C34.0971 47.8187 33.8798 47.3222 33.8798 46.9497C33.8485 44.8386 31.6135 44.5592 31.4583 46.6703C31.3652 47.8499 31.5204 48.1603 33.0726 49.9919C36.3012 53.7794 36.5807 55.1452 34.1901 55.1452C33.0414 55.1452 32.638 55.0209 32.638 54.7106C32.638 54.4623 32.2033 53.9655 31.7065 53.593C26.5223 49.8989 23.3559 37.9777 26.0565 32.421C30.8063 22.766 45.6455 22.5799 49.8052 30.8066C51.7302 34.7181 56.2936 36.7362 55.5486 33.3833ZM38.288 37.45C37.6982 37.8225 37.2014 37.9468 37.1084 37.7606C36.7668 37.2327 35.2146 37.45 34.3453 38.1332C32.0481 39.9336 31.0237 42.6654 32.3585 43.3795C33.0726 43.752 33.6934 43.3174 33.9728 42.6345C34.3453 41.7343 34.3453 41.2684 34.6557 40.1509C34.78 39.7162 35.9596 38.6918 36.146 40.213C36.2079 40.865 36.177 41.9204 36.177 43.0691C36.177 44.9938 36.2082 46.1735 36.3634 46.8876C36.4873 47.5083 37.0772 47.943 37.7291 47.8808C38.3811 47.8187 38.8466 47.2601 38.8466 46.6081L38.7845 44.2176C38.7227 40.5234 38.4432 38.7539 39.7472 38.6918C40.0884 38.6918 40.43 38.723 40.4922 43.1313C40.5543 46.4529 40.6783 47.6947 41.9513 47.6947C42.9446 47.6947 43.224 46.8876 43.224 44.0624C43.224 42.7897 43.0997 40.865 43.1619 39.8714C43.224 38.9091 43.876 38.6296 44.4349 38.816C45.2417 39.1264 45.4281 40.7098 45.0556 41.5479C44.5901 42.5724 44.8074 43.4416 46.2974 43.1934C47.6014 42.9761 47.9739 42.4481 47.4462 41.61C47.2289 41.2684 46.9494 40.5546 46.8251 40.0578C46.2974 37.8537 44.5589 36.8914 42.7272 37.7916C41.9513 38.1641 41.7961 38.1641 41.3924 37.6673C40.5543 36.8914 39.4056 36.7671 38.288 37.45ZM65.8552 43.3795C62.0059 44.2797 63.775 45.5527 68.8974 45.5527C71.0394 45.5527 73.9267 45.6458 75.2925 45.7388C77.9625 45.9562 79.856 45.2111 78.9867 44.3109C78.0865 43.4104 68.6183 42.7275 65.8552 43.3795ZM11.3416 46.7324C4.35667 47.7569 -1.57285 50.3953 1.74911 51.0473C5.16383 51.6993 14.4463 48.3467 13.4836 46.8254C13.3284 46.4838 13.018 46.4838 11.3416 46.7324ZM47.8496 62.3475C47.0115 63.7135 47.0112 63.7135 48.1291 64.862C49.526 66.3211 49.4018 67.1595 47.7566 67.4386C40.4922 68.6183 34.1592 68.7738 31.5204 68.0284C29.5645 67.5007 29.937 65.7934 31.1788 65.2657C31.6756 65.0484 31.986 63.5271 30.8685 62.8442C29.4093 61.9749 29.7509 60.578 32.1412 60.2676C34.3765 59.9572 39.0021 59.9572 47.9117 59.8639C48.4707 59.8639 48.8429 60.4537 48.6258 60.9505C48.4394 61.323 48.1912 61.7576 47.8496 62.3475ZM43.4722 71.7851C42.603 73.4612 41.1751 74.051 40.0575 74.0201C37.6982 73.958 37.1084 72.1576 37.6052 71.8781C37.6361 71.8469 43.5656 71.5986 43.4722 71.7851Z" fill="black"/>
</svg>
