<svg width="60" height="60" viewBox="0 0 60 60" fill="none" xmlns="http://www.w3.org/2000/svg">
<path d="M6.23247 42.3707C9.44369 41.0861 8.43099 39.8264 5.09627 40.9626C3.26847 41.5802 3.12015 41.7285 3.54011 42.3955C3.93527 43.0376 4.5528 43.0376 6.23247 42.3707Z" fill="black"/>
<path d="M5.34398 43.5315C3.98539 44.0256 3.73856 44.322 4.35592 44.7913C4.99826 45.2853 6.30722 45.1123 7.51768 44.3961C9.22198 43.3586 7.56712 42.7164 5.34398 43.5315Z" fill="black"/>
<path d="M54.1779 29.8966C52.8933 28.958 52.6463 28.5134 53.165 28.1923C53.4861 27.9947 55.5857 23.6472 57.0432 20.1891C58.8958 15.7923 59.0439 15.9158 52.0041 15.7923L46.9898 15.6934L47.4592 14.7794C51.5101 6.82561 50.028 3.19463 44.1245 6.62822C42.6423 7.4926 40.8392 8.5301 40.1228 8.90063C38.5914 9.74036 38.6407 9.96275 39.2582 5.7883C39.8263 1.91011 38.6901 0.724464 36.0966 2.4782C35.6272 2.79929 33.9722 4.08382 32.4406 5.31871C29.1802 7.96181 29.4518 7.86311 28.7602 6.52934C27.3522 3.88624 25.2525 2.94761 24.388 4.60247C23.2764 6.72673 21.8191 14.4583 22.4861 14.6807C23.2766 14.9523 25.0798 12.087 26.0925 8.94988C26.2654 8.45585 27.2781 9.5428 27.5992 10.5555C27.9943 11.8154 28.6121 11.5435 32.4901 8.45585C33.9475 7.27021 35.2073 6.33158 35.2321 6.33158C35.2813 6.33158 35.1578 7.14689 34.9602 8.11013C33.6757 14.6807 35.1578 13.915 40.9379 11.0249C46.1498 8.40659 45.656 8.33253 44.5937 11.6424L43.2599 15.8417C42.3953 18.5587 43.2599 19.7197 45.4582 18.8057C46.4463 18.3859 53.659 18.5341 53.659 18.954C53.659 19.0527 52.9674 20.4113 52.1523 21.9428C50.0034 25.9197 49.6575 27.1054 48.9905 27.9946C48.3483 28.8099 48.8424 30.4895 49.8551 30.6871C50.9172 30.8847 52.3252 32.3668 54.993 34.911C47.0886 38.0233 46.9155 37.5787 51.0653 43.2601C52.2264 44.8655 53.1652 46.1995 53.1157 46.2489C53.0663 46.2736 51.4112 46.1995 49.4105 46.0513C44.3466 45.6808 43.9021 45.9525 45.1371 48.4719C45.9028 50.028 45.8782 50.0282 44.0256 48.9413C40.1722 46.6441 37.208 47.9038 40.9132 50.2753C49.8551 56.0305 50.9913 56.1788 49.8551 51.535C49.0151 48.1756 49.04 48.1262 50.028 48.2497C51.3866 48.4226 55.1905 48.5213 56.2527 48.8918C59.5131 50.0529 58.8958 47.6321 54.4989 42.1732C53.2392 40.5922 52.2017 39.209 52.2017 39.0855C52.2017 38.789 57.5618 36.3685 58.6734 36.1707C59.538 36.0226 59.612 35.3804 58.9945 34.417C58.2534 33.256 56.5986 31.6504 54.1779 29.8966Z" fill="black"/>
<path d="M24.833 47.533C30.1191 47.7801 34.6392 49.6575 39.8512 46.5203C46.2982 42.667 41.2098 24.7091 37.1094 18.9538C34.3922 15.1497 30.6131 13.0995 25.7963 15.6437C22.8815 17.1753 22.2888 17.6693 18.6576 21.6956C16.9285 23.5977 14.9524 25.549 14.2608 25.9936C13.5692 26.463 12.7294 27.0311 12.3835 27.2533C4.10869 32.9593 2.25607 34.4168 1.58909 35.8C-0.238898 39.5793 0.526957 44.4453 3.39227 47.1131C4.15795 47.8295 10.3826 52.004 10.6791 52.004C10.7779 52.004 11.272 52.5722 11.766 53.2638C15.4464 58.4017 19.6457 59.6615 23.5732 56.8454C26.3892 54.8446 26.2657 53.239 23.0791 50.1761L22.091 49.2375L23.1039 47.4095L24.833 47.533ZM2.7253 39.3571C3.63929 36.2445 8.20889 31.7736 7.81375 34.3673C7.31972 37.6031 10.1604 43.4821 13.2727 45.7299L14.5573 46.6687L13.6433 47.286C8.99939 50.5467 1.14451 44.816 2.7253 39.3571ZM22.2394 53.8566C21.523 54.4 20.8808 53.3625 20.8808 53.3625C19.8187 52.3004 18.8304 52.7204 19.5715 53.8071C20.0903 54.5482 20.3619 54.5235 19.6209 55.314C18.5588 56.4256 18.0895 56.2278 15.5453 53.8071C11.5436 49.9786 11.2968 49.4105 13.2481 48.62C14.2115 48.2246 14.2362 48.0271 14.8289 49.0892C15.891 50.9913 17.1755 50.6702 19.7444 50.3737C20.0903 50.3243 20.4114 50.4726 20.6338 50.7196L21.3254 51.5593C21.8689 52.078 22.7828 53.4366 22.2394 53.8566ZM19.7198 47.0884C20.609 47.7554 18.8552 49.0892 18.0895 49.0892C17.5707 49.0892 16.3358 48.2 16.3358 47.8295C16.3358 47.3355 19.1022 46.6192 19.7198 47.0884ZM13.8656 43.3339C8.28316 38.2949 8.18428 32.5641 13.6186 29.2542C16.9285 27.2286 19.8187 24.8327 21.8935 22.3872C22.6593 21.498 23.5732 20.09 24.092 19.67C24.9071 18.9784 25.0306 19.596 24.6107 20.2876C19.4728 28.4637 22.2888 38.2207 25.9692 42.247C30.7861 47.5084 38.7644 45.5569 38.7644 39.6533C38.7644 38.3196 38.1964 38.0477 37.7764 39.2335C35.0592 47.1625 30.1437 42.0248 30.1191 42.0248C30.7366 39.9003 31.0329 38.1466 34.0217 36.714C39.3325 34.1944 34.7627 26.1419 29.0816 27.9943C26.7595 28.7602 24.1661 27.5497 23.9437 27.3027C23.9437 27.2781 24.4623 20.9299 28.711 18.3609C29.9213 17.6198 29.0073 16.6318 27.5995 17.3236C26.6608 17.7928 26.2655 17.2247 26.636 16.8047C27.6489 15.6685 29.3532 15.3474 30.4648 15.8167C40.2217 19.917 46.4958 46.6685 34.6392 46.4463C33.0584 46.4215 29.7237 45.9276 24.833 45.3593C20.2633 44.8653 17.2744 46.4216 13.8656 43.3339ZM24.4871 31.008C24.4871 30.6869 24.7836 30.5387 25.9198 30.4152C26.7103 30.3164 27.5008 30.1434 27.6983 30.0447C28.637 29.5012 28.8592 29.7729 29.0075 31.5761C29.1805 33.6016 29.8967 35.2813 30.7861 35.7505C31.1318 35.9235 31.4036 36.1705 31.4036 36.2694C31.4036 36.4669 27.723 39.1841 27.4265 39.1841C26.9573 39.2087 24.4871 32.3171 24.4871 31.008ZM32.4655 29.6494C32.8361 30.2175 33.6266 33.1076 33.6266 33.8979C33.6266 34.5897 33.0833 33.9473 32.3668 32.416C31.3293 30.2669 31.4282 28.0686 32.4655 29.6494Z" fill="black"/>
</svg>
