<svg width="32" height="32" viewBox="0 0 32 32" fill="none" xmlns="http://www.w3.org/2000/svg">
<path d="M4 12.1466V19.8399C4 22.6666 4 22.6666 6.66667 24.4666L14 28.7066C15.1067 29.3466 16.9067 29.3466 18 28.7066L25.3333 24.4666C28 22.6666 28 22.6666 28 19.8532V12.1466C28 9.33323 28 9.33323 25.3333 7.53323L18 3.29323C16.9067 2.65323 15.1067 2.65323 14 3.29323L6.66667 7.53323C4 9.33323 4 9.33323 4 12.1466Z" stroke="#292D32" stroke-width="1.5" stroke-linecap="round" stroke-linejoin="round"/>
<path d="M16 19.9999C18.2091 19.9999 20 18.209 20 15.9999C20 13.7908 18.2091 11.9999 16 11.9999C13.7909 11.9999 12 13.7908 12 15.9999C12 18.209 13.7909 19.9999 16 19.9999Z" stroke="#292D32" stroke-width="1.5" stroke-linecap="round" stroke-linejoin="round"/>
</svg>
